<svg width="16" height="17" viewBox="0 0 16 17" fill="none" xmlns="http://www.w3.org/2000/svg">
<path fill-rule="evenodd" clip-rule="evenodd" d="M7.50833 14.9227C7.50833 14.9227 2.66699 10.8453 2.66699 6.83333C2.66699 5.41885 3.2289 4.06229 4.22909 3.0621C5.22928 2.0619 6.58584 1.5 8.00033 1.5C9.41481 1.5 10.7714 2.0619 11.7716 3.0621C12.7718 4.06229 13.3337 5.41885 13.3337 6.83333C13.3337 10.8453 8.49233 14.9227 8.49233 14.9227C8.22299 15.1707 7.77966 15.168 7.50833 14.9227ZM8.00033 9.16667C8.30674 9.16667 8.61016 9.10631 8.89325 8.98905C9.17635 8.87179 9.43357 8.69992 9.65024 8.48325C9.86691 8.26658 10.0388 8.00935 10.156 7.72626C10.2733 7.44317 10.3337 7.13975 10.3337 6.83333C10.3337 6.52692 10.2733 6.2235 10.156 5.94041C10.0388 5.65731 9.86691 5.40009 9.65024 5.18342C9.43357 4.96675 9.17635 4.79488 8.89325 4.67761C8.61016 4.56035 8.30674 4.5 8.00033 4.5C7.38149 4.5 6.78799 4.74583 6.35041 5.18342C5.91283 5.621 5.66699 6.2145 5.66699 6.83333C5.66699 7.45217 5.91283 8.04566 6.35041 8.48325C6.78799 8.92083 7.38149 9.16667 8.00033 9.16667Z" fill="#B1B4D0"/>
</svg>
